<svg width="108" height="44" viewBox="0 0 108 44" fill="none" xmlns="http://www.w3.org/2000/svg">
<g clip-path="url(#clip0_117_2190)">
<path fill-rule="evenodd" clip-rule="evenodd" d="M58.0347 36.2004C69.995 38.5657 82.9689 39.0021 94.3292 34.5968C98.4628 32.9941 101.994 30.5614 105.632 28.1039C105.744 28.0161 105.818 27.8894 105.84 27.7491C105.862 27.6089 105.829 27.4655 105.75 27.348C105.67 27.2304 105.549 27.1474 105.411 27.1156C105.272 27.0838 105.127 27.1056 105.004 27.1766C101.436 29.5865 97.9778 31.9806 93.9246 33.5525C82.7249 37.8963 69.9315 37.4282 58.1468 35.0807L58.1676 34.8973C58.4056 32.8979 57.1243 30.486 55.0079 28.1951C51.9732 24.9105 47.2684 21.8312 43.481 20.4993C41.7791 19.9012 40.2509 19.6593 39.1163 19.8626C38.2317 20.0202 37.5593 20.4378 37.1537 21.1231C36.2889 22.5839 36.9077 24.4255 38.5292 26.2791C41.918 30.1568 49.6099 34.2606 53.3735 35.173C54.5487 35.4576 55.7378 35.7283 56.9378 35.9763C56.9051 36.3293 56.8724 36.6754 56.8248 37.0097C56.6869 37.9617 56.4261 38.8374 55.6446 39.6259C54.4248 40.8526 52.716 41.53 50.8634 41.887C47.9715 42.4404 44.7246 42.2044 42.2919 41.89C28.7388 40.1416 19.9352 32.5419 13.843 24.0586C7.69419 15.489 4.29353 6.01597 1.59105 0.644736C1.55797 0.579097 1.51229 0.520616 1.45661 0.472633C1.40092 0.424649 1.33634 0.388103 1.26653 0.36508C1.12555 0.318583 0.97188 0.329994 0.839315 0.396802C0.706751 0.463611 0.606156 0.580344 0.559659 0.721321C0.536636 0.791126 0.527588 0.864783 0.533031 0.938085C0.538474 1.01139 0.558301 1.0829 0.591382 1.14854C3.31072 6.5535 6.74312 16.084 12.9355 24.7102C19.1864 33.4196 28.237 41.2047 42.1471 43.0007C44.682 43.328 48.0628 43.5631 51.0737 42.9859C53.1593 42.5852 55.0674 41.7938 56.439 40.4133C57.6707 39.1736 57.877 37.7723 58.0337 36.1984L58.0347 36.2004ZM57.0449 34.8556L57.0568 34.7634C57.2651 33.0159 56.0353 30.9591 54.1848 28.9558C51.2691 25.7991 46.7507 22.8368 43.1091 21.5564C41.8605 21.1171 40.722 20.8761 39.7977 20.9128C39.036 20.9445 38.433 21.1607 38.1187 21.6943C37.8191 22.1971 37.8142 22.7614 38.0076 23.3574C38.2327 24.0586 38.7167 24.7925 39.3712 25.5412C42.6291 29.2672 50.0205 33.2074 53.6373 34.085C54.761 34.3558 55.8975 34.6146 57.0449 34.8556Z" fill="white"/>
<path fill-rule="evenodd" clip-rule="evenodd" d="M106.475 26.0261C106.5 26.27 106.433 26.6072 106.357 26.9682C106.178 27.831 105.839 28.794 105.698 29.2542C105.664 29.3935 105.685 29.5407 105.756 29.6654C105.827 29.7901 105.943 29.8829 106.08 29.9248C106.217 29.9667 106.365 29.9545 106.493 29.8906C106.622 29.8268 106.721 29.7161 106.771 29.5815C106.943 29.0162 107.391 27.7309 107.537 26.7362C107.616 26.2026 107.598 25.7375 107.477 25.437C107.27 24.9253 106.754 24.7259 105.937 25.0006C104.97 25.3279 103.311 26.3791 101.615 26.2631C101.541 26.2582 101.467 26.2677 101.398 26.2912C101.328 26.3147 101.264 26.3517 101.208 26.4001C101.096 26.4979 101.028 26.636 101.018 26.7843C101.008 26.9325 101.057 27.0786 101.155 27.1905C101.253 27.3023 101.391 27.3708 101.539 27.3808C103.157 27.4899 104.757 26.6985 105.856 26.2334C106.064 26.1461 106.321 26.0697 106.475 26.0261Z" fill="white"/>
</g>
<defs>
<clipPath id="clip0_117_2190">
<rect width="108" height="44" fill="white"/>
</clipPath>
</defs>
</svg>
