<svg width="320" height="346" viewBox="0 0 320 346" fill="none" xmlns="http://www.w3.org/2000/svg">
<g opacity="0.06" clip-path="url(#clip0_117_2180)">
<path d="M161.206 0C161.736 0 162.265 0 162.81 0C170.109 21.0756 170.109 21.0756 172.575 29.8658C173.453 32.8245 174.548 35.6846 175.652 38.5684C177.154 42.6202 178.383 46.7566 179.653 50.8823C182.776 61.0208 185.962 71.1237 189.445 81.1506C190.634 84.578 191.811 88.0094 192.986 91.4413C193.225 92.1391 193.464 92.8369 193.71 93.5558C195.275 98.1406 196.752 102.742 198.18 107.37C198.901 109.593 199.711 111.765 200.555 113.947C202 117.727 203.022 121.533 203.944 125.463C204.453 127.614 204.453 127.614 205.436 129.585C206.292 131.999 206.037 132.969 205.317 135.425C205.165 135.957 205.014 136.489 204.858 137.037C204.295 138.984 203.707 140.923 203.111 142.862C202.897 143.56 202.683 144.258 202.463 144.978C200.98 149.745 199.265 154.336 197.362 158.958C196.21 162.012 195.491 165.112 194.74 168.278C193.791 171.736 192.391 174.989 191.031 178.308C190.125 180.704 189.465 183.039 188.876 185.525C188.068 188.926 186.996 192.067 185.668 195.31C184.037 199.292 182.9 203.2 181.905 207.37C180.93 211.012 179.573 214.501 178.246 218.032C177.041 221.309 176 224.617 174.969 227.949C173.769 231.789 172.528 235.615 171.282 239.44C171.04 240.183 170.798 240.926 170.548 241.691C168.832 246.942 167.066 252.174 165.251 257.393C164.366 260.037 163.577 262.692 162.81 265.371C162.017 265.112 161.223 264.854 160.404 264.588C159.405 262.328 159.405 262.328 158.45 259.353C158.278 258.827 158.107 258.301 157.93 257.759C156.507 253.349 155.235 248.898 153.96 244.446C153.033 241.379 151.918 238.407 150.771 235.413C149.022 230.697 147.62 225.868 146.146 221.065C143.637 212.894 141.131 204.757 138.104 196.753C137.218 194.331 136.417 191.905 135.652 189.445C134.497 185.746 133.335 182.05 132.159 178.357C131.708 176.939 131.708 176.939 131.247 175.492C130.944 174.54 130.642 173.589 130.329 172.608C129.719 170.692 129.11 168.776 128.5 166.86C128.202 165.926 127.905 164.992 127.598 164.03C127.022 162.211 126.451 160.39 125.886 158.568C124.04 152.622 121.985 146.787 119.737 140.975C117.143 133.993 117.86 129.279 120.505 122.46C122.577 116.924 124.408 111.424 126.006 105.74C126.669 103.503 127.433 101.35 128.274 99.1715C129.651 95.5922 130.794 91.9797 131.883 88.3101C134.684 78.885 137.666 69.5718 141.082 60.3409C142.511 56.4232 143.584 52.5014 144.543 48.4482C145.485 45.0303 146.88 41.8086 148.224 38.5256C149.405 35.4043 150.165 32.2609 150.937 29.0249C151.888 25.4741 153.222 22.0807 154.524 18.6405C155.965 14.7309 157.105 10.7326 158.239 6.72971C158.982 4.16028 159.675 2.24199 161.206 0Z" fill="white"/>
<path d="M319.199 0.782715C319.464 0.782715 319.728 0.782715 320.001 0.782715C320.001 87.58 320.001 174.377 320.001 263.805C317.778 262.72 317.745 261.637 316.95 259.365C316.682 258.608 316.414 257.851 316.138 257.07C315.858 256.257 315.578 255.445 315.289 254.607C314.999 253.777 314.708 252.947 314.409 252.092C312.752 247.33 311.153 242.557 309.675 237.74C308.345 233.467 306.955 229.213 305.565 224.958C305.298 224.136 305.032 223.315 304.757 222.468C303.222 217.775 301.585 213.136 299.84 208.514C299.057 206.413 298.354 204.3 297.695 202.159C297.424 201.29 297.154 200.421 296.875 199.526C296.192 197.313 295.524 195.096 294.857 192.879C291.427 181.573 287.562 170.43 283.606 159.292C281.408 153.094 279.266 146.899 277.339 140.616C276.922 139.285 276.478 137.961 276.004 136.649C274.249 131.774 276.06 128.075 277.949 123.441C279.075 120.611 279.94 117.805 280.753 114.876C281.657 111.682 282.642 108.634 283.961 105.581C285.152 102.82 285.972 100.132 286.668 97.2144C287.478 93.8529 288.511 90.7332 289.826 87.5272C291.419 83.6244 292.747 79.7197 293.936 75.6873C294.185 74.844 294.185 74.844 294.439 73.9837C294.774 72.8449 295.109 71.706 295.443 70.5669C297.678 63.0239 300.185 55.6421 303.085 48.3186C304.573 44.4985 305.616 40.694 306.552 36.7183C307.22 34.2552 308.105 31.9652 309.074 29.5997C310.922 25.0825 312.363 20.5306 313.734 15.8618C317.753 2.19374 317.753 2.19374 319.199 0.782715Z" fill="white"/>
<path d="M0 4.69629C2.60407 7.23803 3.45262 9.41124 4.57704 12.717C4.77406 13.2789 4.97108 13.8408 5.17407 14.4197C5.81261 16.2481 6.44041 18.0799 7.06763 19.912C7.50808 21.1824 7.94883 22.4526 8.38988 23.7227C10.693 30.3841 12.8994 37.0588 14.883 43.8181C17.4445 52.3665 20.5367 60.7583 23.5241 69.1716C25.6675 75.2164 27.7467 81.2615 29.6408 87.3863C31.4181 92.9945 33.3713 98.5484 35.288 104.112C45.0059 132.322 45.0059 132.322 41.845 140.051C40.8302 142.654 40.0543 145.264 39.298 147.949C38.1406 152.005 36.805 155.927 35.288 159.866C34.4027 162.266 33.6365 164.686 32.882 167.128C31.9014 170.299 30.8573 173.418 29.674 176.522C27.6136 181.957 25.9308 187.498 24.2378 193.051C21.775 201.122 19.3325 209.124 16.1246 216.946C14.5156 221.008 13.2954 225.188 12.03 229.361C8.8979 239.681 5.66774 249.88 1.604 259.89C1.07468 259.89 0.545361 259.89 0 259.89C0 175.676 0 91.4623 0 4.69629Z" fill="white"/>
<path d="M239.807 239.538C240.336 239.538 240.866 239.538 241.411 239.538C242.447 242.667 243.483 245.796 244.518 248.925C244.886 250.039 245.255 251.154 245.624 252.268C247.675 258.466 249.715 264.666 251.719 270.878C253.94 277.763 256.27 284.595 258.808 291.375C259.893 294.319 260.816 297.195 261.467 300.26C262.314 304.232 263.8 307.852 265.372 311.594C266.479 314.333 267.217 316.785 267.523 319.724C267.64 320.645 267.757 321.566 267.877 322.515C268.406 322.774 268.936 323.032 269.481 323.298C267.037 325.872 264.189 327.142 260.96 328.582C260.351 328.856 259.742 329.13 259.115 329.412C257.228 330.254 255.336 331.084 253.441 331.909C252.897 332.148 252.352 332.386 251.791 332.632C237.495 338.829 220.377 345.999 204.519 345.999C205.552 340.047 207.262 334.477 209.281 328.778C211.626 322.102 211.626 322.102 213.773 315.363C214.945 311.483 216.307 307.683 217.702 303.875C220.118 297.201 222.315 290.493 224.381 283.707C229.276 267.668 229.276 267.668 232.439 260.041C233.836 256.377 234.913 252.63 235.968 248.86C236.92 245.535 238.112 242.593 239.807 239.538Z" fill="white"/>
<path d="M80.1989 245.801C80.9929 245.801 81.7869 245.801 82.6049 245.801C84.4308 250.446 86.0506 255.097 87.417 259.891C88.5744 263.947 89.91 267.869 91.427 271.808C92.6252 275.056 93.6141 278.361 94.635 281.666C95.3692 283.948 96.1791 286.177 97.041 288.415C98.6265 292.568 99.8331 296.792 101.051 301.059C101.981 304.154 103.097 307.148 104.259 310.165C105.457 313.413 106.446 316.719 107.467 320.023C108.201 322.305 109.011 324.534 109.873 326.772C114.685 339.427 114.685 339.427 114.685 344.434C104.328 344.194 94.6518 340.616 84.9608 337.34C84.4174 337.158 83.874 336.975 83.3141 336.787C79.9471 335.619 76.8006 334.211 73.6238 332.617C71.8953 331.77 70.1334 331.093 68.3193 330.441C63.7681 328.714 59.5725 326.439 55.3369 324.081C57.5207 315.929 60.043 307.874 62.5549 299.814C62.8189 298.964 62.8189 298.964 63.0883 298.096C64.9106 292.239 66.8488 286.444 68.9709 280.684C70.9994 275.175 72.7443 269.617 74.4001 263.992C75.4135 260.554 76.4948 257.139 77.5924 253.727C77.8461 252.937 77.8461 252.937 78.1049 252.132C78.787 250.016 79.4803 247.905 80.1989 245.801Z" fill="white"/>
</g>
<defs>
<clipPath id="clip0_117_2180">
<rect width="320" height="346" fill="white"/>
</clipPath>
</defs>
</svg>
