<svg width="100" height="25" viewBox="0 0 100 25" fill="none" xmlns="http://www.w3.org/2000/svg">
<path d="M32.45 21.8462V3.76286L40.5778 14.9629L48.55 3.76286V21.8462H46.3333V13.7573C46.3333 13.2258 46.3398 12.649 46.3528 12.0267C46.3657 11.3916 46.4111 10.6721 46.4889 9.86841C46.087 10.5814 45.6917 11.2101 45.3028 11.7545C44.9269 12.286 44.5833 12.7786 44.2722 13.2323L40.5 18.5795L36.6111 13.2323C36.287 12.7786 35.937 12.286 35.5611 11.7545C35.1981 11.2101 34.8093 10.5814 34.3944 9.86841C34.4722 10.6721 34.5176 11.3916 34.5306 12.0267C34.5435 12.649 34.55 13.2258 34.55 13.7573V21.8462H32.45ZM58.0078 22.0795C56.7893 22.0795 55.6939 21.8073 54.7217 21.2629C53.7624 20.7184 53.0041 19.9795 52.4467 19.0462C51.9022 18.0999 51.63 17.0499 51.63 15.8962C51.63 14.7943 51.8957 13.7962 52.4272 12.9017C52.9587 11.9943 53.6717 11.2749 54.5661 10.7434C55.4735 10.2119 56.4717 9.94619 57.5606 9.94619C58.6365 9.94619 59.6217 10.2055 60.5161 10.724C61.4106 11.2295 62.1235 11.9166 62.655 12.7851C63.1865 13.6536 63.4522 14.6388 63.4522 15.7406V16.5962H55.83C55.493 16.5962 55.1494 16.5832 54.7994 16.5573C54.4494 16.5314 54.1059 16.4925 53.7689 16.4406C53.9115 17.4777 54.3781 18.3462 55.1689 19.0462C55.9726 19.7462 56.9254 20.0962 58.0272 20.0962C58.7661 20.0962 59.4531 19.9277 60.0883 19.5906C60.7235 19.2536 61.2356 18.8064 61.6244 18.249L62.2078 20.6406C61.6504 21.0943 61.0087 21.4508 60.2828 21.7101C59.5698 21.9564 58.8115 22.0795 58.0078 22.0795ZM53.7106 15.0212C54.4106 14.9045 55.117 14.8462 55.83 14.8462H59.6994C59.9846 14.8462 60.2633 14.8592 60.5356 14.8851C60.8207 14.898 61.1059 14.9175 61.3911 14.9434C61.2096 14.036 60.7559 13.2906 60.03 12.7073C59.3041 12.111 58.4809 11.8129 57.5606 11.8129C56.6143 11.8129 55.7846 12.1305 55.0717 12.7656C54.3587 13.3879 53.905 14.1397 53.7106 15.0212ZM65.8353 21.8462V10.1795H67.7797V12.3184C68.1945 11.6314 68.7454 11.0869 69.4325 10.6851C70.1195 10.2703 70.9362 10.0629 71.8825 10.0629L72.4075 12.1629C72.1612 12.0851 71.876 12.0462 71.5519 12.0462C70.463 12.0462 69.588 12.3962 68.9269 13.0962C68.2658 13.7832 67.9353 14.7684 67.9353 16.0517V21.8462H65.8353ZM79.1491 22.0795C78.0084 22.0795 76.9713 21.8073 76.038 21.2629C75.1047 20.7184 74.3593 19.986 73.8019 19.0656C73.2445 18.1453 72.9658 17.1277 72.9658 16.0129C72.9658 14.898 73.2445 13.8805 73.8019 12.9601C74.3593 12.0397 75.1047 11.3073 76.038 10.7629C76.9713 10.2184 78.0084 9.94619 79.1491 9.94619C79.9917 9.94619 80.7824 10.0953 81.5213 10.3934C82.2602 10.6916 82.9084 11.0869 83.4658 11.5795L82.8241 14.224C82.5 13.5758 82.0074 13.0314 81.3463 12.5906C80.6982 12.1499 79.9593 11.9295 79.1297 11.9295C78.3778 11.9295 77.6908 12.1175 77.0686 12.4934C76.4593 12.8564 75.9732 13.349 75.6102 13.9712C75.2473 14.5805 75.0658 15.261 75.0658 16.0129C75.0658 16.7517 75.2473 17.4323 75.6102 18.0545C75.9732 18.6767 76.4593 19.1758 77.0686 19.5517C77.6908 19.9147 78.3778 20.0962 79.1297 20.0962C79.9593 20.0962 80.6982 19.8823 81.3463 19.4545C82.0074 19.0267 82.5 18.4758 82.8241 17.8017L83.4658 20.4462C82.9084 20.9388 82.2602 21.3342 81.5213 21.6323C80.7824 21.9305 79.9917 22.0795 79.1491 22.0795ZM90.9402 22.0795C89.8124 22.0795 88.7819 21.8073 87.8486 21.2629C86.9152 20.7184 86.1699 19.986 85.6124 19.0656C85.068 18.1453 84.7958 17.1277 84.7958 16.0129C84.7958 14.8851 85.068 13.8675 85.6124 12.9601C86.1699 12.0397 86.9152 11.3073 87.8486 10.7629C88.7819 10.2184 89.8124 9.94619 90.9402 9.94619C92.081 9.94619 93.1115 10.2184 94.0319 10.7629C94.9652 11.3073 95.7041 12.0397 96.2486 12.9601C96.806 13.8675 97.0847 14.8851 97.0847 16.0129C97.0847 17.1277 96.806 18.1453 96.2486 19.0656C95.7041 19.986 94.9652 20.7184 94.0319 21.2629C93.1115 21.8073 92.081 22.0795 90.9402 22.0795ZM90.9402 20.0962C91.6921 20.0962 92.3726 19.9147 92.9819 19.5517C93.5912 19.1758 94.0773 18.6832 94.4402 18.074C94.8032 17.4517 94.9847 16.7647 94.9847 16.0129C94.9847 15.261 94.8032 14.5805 94.4402 13.9712C94.0773 13.349 93.5912 12.8564 92.9819 12.4934C92.3726 12.1175 91.6921 11.9295 90.9402 11.9295C90.1884 11.9295 89.5078 12.1175 88.8986 12.4934C88.2893 12.8564 87.8032 13.349 87.4402 13.9712C87.0773 14.5805 86.8958 15.261 86.8958 16.0129C86.8958 16.7647 87.0773 17.4517 87.4402 18.074C87.8032 18.6832 88.2893 19.1758 88.8986 19.5517C89.5078 19.9147 90.1884 20.0962 90.9402 20.0962Z" fill="#FFFBFA"/>
<path d="M11.9374 0C11.9769 0 12.0163 0 12.0569 0C12.6007 1.48912 12.6007 1.48912 12.7844 2.1102C12.8498 2.31924 12.9314 2.52133 13.0136 2.72508C13.1256 3.01137 13.2171 3.30363 13.3117 3.59513C13.5444 4.31148 13.7818 5.02531 14.0412 5.73377C14.1298 5.97594 14.2174 6.21838 14.305 6.46087C14.3228 6.51017 14.3406 6.55947 14.359 6.61027C14.4756 6.93421 14.5856 7.25935 14.692 7.58629C14.7457 7.74341 14.8061 7.89686 14.8689 8.05102C14.9766 8.31807 15.0527 8.58699 15.1214 8.86468C15.1593 9.01668 15.1593 9.01668 15.2325 9.15592C15.2963 9.32653 15.2774 9.39507 15.2237 9.56858C15.2124 9.60616 15.2011 9.64373 15.1895 9.68244C15.1475 9.82006 15.1037 9.95706 15.0593 10.094C15.0434 10.1434 15.0275 10.1927 15.0111 10.2435C14.9006 10.5804 14.7728 10.9047 14.6311 11.2313C14.5452 11.4471 14.4917 11.6662 14.4357 11.8899C14.365 12.1341 14.2607 12.364 14.1594 12.5985C14.0919 12.7678 14.0427 12.9328 13.9988 13.1084C13.9387 13.3488 13.8588 13.5707 13.7598 13.7998C13.6383 14.0812 13.5536 14.3572 13.4795 14.6519C13.4068 14.9092 13.3057 15.1557 13.2069 15.4053C13.1171 15.6368 13.0395 15.8705 12.9627 16.1059C12.8734 16.3772 12.7809 16.6476 12.688 16.9179C12.67 16.9703 12.652 17.0228 12.6334 17.0769C12.5055 17.4479 12.374 17.8176 12.2387 18.1863C12.1728 18.3732 12.1141 18.5607 12.0569 18.75C11.9978 18.7317 11.9386 18.7135 11.8777 18.6947C11.8032 18.535 11.8032 18.535 11.732 18.3248C11.7193 18.2876 11.7065 18.2505 11.6933 18.2122C11.5873 17.9006 11.4926 17.5861 11.3976 17.2715C11.3285 17.0548 11.2454 16.8449 11.16 16.6333C11.0297 16.3001 10.9252 15.9589 10.8154 15.6195C10.6285 15.0422 10.4418 14.4673 10.2163 13.9018C10.1503 13.7307 10.0906 13.5592 10.0336 13.3854C9.94754 13.1241 9.86096 12.8629 9.77338 12.602C9.73976 12.5018 9.73976 12.5018 9.70546 12.3995C9.6829 12.3323 9.66033 12.2651 9.63708 12.1958C9.59163 12.0604 9.5462 11.925 9.50077 11.7896C9.47861 11.7236 9.45645 11.6577 9.43362 11.5897C9.3907 11.4612 9.34817 11.3325 9.30606 11.2038C9.16851 10.7837 9.01542 10.3714 8.84797 9.96072C8.65471 9.4674 8.70811 9.13431 8.90515 8.65252C9.05951 8.26137 9.19593 7.87276 9.31499 7.47114C9.3644 7.31307 9.42125 7.16095 9.48397 7.00705C9.58652 6.75415 9.67168 6.49891 9.75284 6.23963C9.96146 5.57369 10.1837 4.91566 10.4382 4.26344C10.5446 3.98663 10.6246 3.70953 10.696 3.42315C10.7662 3.18166 10.8701 2.95402 10.9702 2.72206C11.0582 2.50152 11.1148 2.27942 11.1724 2.05078C11.2432 1.7999 11.3426 1.56013 11.4396 1.31706C11.5469 1.04082 11.6319 0.758319 11.7164 0.475494C11.7717 0.293948 11.8233 0.15841 11.9374 0Z" fill="#D32C17"/>
<path d="M22.8504 0C22.8697 0 22.8891 0 22.9091 0C22.9091 6.1875 22.9091 12.375 22.9091 18.75C22.7464 18.6727 22.7439 18.5954 22.6857 18.4335C22.6661 18.3795 22.6465 18.3255 22.6263 18.2699C22.6058 18.212 22.5853 18.154 22.5642 18.0943C22.5429 18.0351 22.5217 17.976 22.4997 17.915C22.3784 17.5756 22.2614 17.2353 22.1532 16.8919C22.0559 16.5873 21.9541 16.2841 21.8524 15.9807C21.8328 15.9222 21.8133 15.8636 21.7932 15.8032C21.6809 15.4687 21.561 15.138 21.4333 14.8085C21.376 14.6587 21.3245 14.5081 21.2763 14.3555C21.2565 14.2935 21.2367 14.2316 21.2162 14.1678C21.1663 14.01 21.1173 13.852 21.0685 13.6939C20.8174 12.888 20.5346 12.0936 20.245 11.2996C20.0841 10.8578 19.9273 10.4162 19.7862 9.96825C19.7557 9.87337 19.7232 9.77902 19.6885 9.68545C19.56 9.33793 19.6926 9.07422 19.8309 8.74394C19.9133 8.54219 19.9766 8.34216 20.0361 8.13337C20.1023 7.90563 20.1744 7.68837 20.271 7.4707C20.3581 7.27389 20.4182 7.0823 20.4691 6.8743C20.5284 6.63467 20.604 6.41228 20.7003 6.18373C20.8169 5.90551 20.9141 5.62716 21.0011 5.3397C21.0193 5.27959 21.0193 5.27959 21.0379 5.21826C21.0625 5.13708 21.087 5.05589 21.1115 4.97469C21.275 4.43698 21.4585 3.91075 21.6708 3.38868C21.7798 3.11636 21.8561 2.84514 21.9246 2.56173C21.9735 2.38615 22.0383 2.2229 22.1092 2.05427C22.2445 1.73225 22.35 1.40777 22.4504 1.07494C22.7446 0.100588 22.7446 0.100588 22.8504 0Z" fill="#D32C17"/>
<path d="M1.09088 0C1.2858 0.186751 1.34931 0.346424 1.43347 0.589307C1.44822 0.630592 1.46296 0.671876 1.47816 0.714411C1.52595 0.848753 1.57294 0.983339 1.61989 1.11795C1.65286 1.21129 1.68585 1.30462 1.71886 1.39793C1.89125 1.88737 2.0564 2.37778 2.20487 2.87442C2.39659 3.5025 2.62805 4.11907 2.85165 4.73722C3.01208 5.18136 3.16771 5.62551 3.30948 6.07552C3.44251 6.48758 3.58871 6.89564 3.73218 7.30445C4.45955 9.37712 4.45955 9.37712 4.22296 9.94499C4.147 10.1362 4.08893 10.328 4.03232 10.5253C3.94569 10.8233 3.84572 11.1114 3.73218 11.4008C3.66591 11.5772 3.60856 11.755 3.55209 11.9344C3.47869 12.1674 3.40054 12.3966 3.31197 12.6246C3.15775 13.024 3.03179 13.4311 2.90507 13.8391C2.72073 14.4321 2.53791 15.02 2.2978 15.5947C2.17737 15.8932 2.08604 16.2003 1.99132 16.5069C1.75689 17.2651 1.51511 18.0145 1.21094 18.75C1.17132 18.75 1.1317 18.75 1.09088 18.75C1.09088 12.5625 1.09088 6.375 1.09088 0Z" fill="#D32C17"/>
<path d="M17.6431 16.6667C17.6786 16.6667 17.7142 16.6667 17.7508 16.6667C17.8204 16.881 17.89 17.0953 17.9595 17.3096C17.9843 17.386 18.009 17.4623 18.0338 17.5386C18.1716 17.9631 18.3086 18.3878 18.4432 18.8133C18.5924 19.2848 18.7489 19.7527 18.9194 20.2171C18.9923 20.4188 19.0543 20.6157 19.098 20.8257C19.1549 21.0977 19.2547 21.3456 19.3604 21.602C19.4347 21.7895 19.4842 21.9575 19.5048 22.1587C19.5127 22.2218 19.5205 22.2849 19.5286 22.35C19.5642 22.3677 19.5997 22.3853 19.6363 22.4036C19.4721 22.5798 19.2808 22.6668 19.064 22.7655C19.023 22.7842 18.9821 22.803 18.94 22.8223C18.8133 22.88 18.6862 22.9368 18.5589 22.9933C18.5223 23.0097 18.4857 23.026 18.4481 23.0429C17.4878 23.4673 16.3379 23.9584 15.2727 23.9584C15.3421 23.5507 15.4569 23.1692 15.5926 22.7789C15.7501 22.3216 15.7501 22.3216 15.8943 21.8601C15.9731 21.5943 16.0645 21.3341 16.1582 21.0732C16.3205 20.6161 16.4681 20.1567 16.6069 19.6919C16.9357 18.5934 16.9357 18.5934 17.1481 18.071C17.242 17.82 17.3143 17.5635 17.3852 17.3052C17.4491 17.0775 17.5292 16.876 17.6431 16.6667Z" fill="#D32C17"/>
<path d="M6.19166 16.6667C6.25004 16.6667 6.30841 16.6667 6.36856 16.6667C6.50281 17.0101 6.62191 17.354 6.72237 17.7084C6.80747 18.0082 6.90567 18.2982 7.01721 18.5894C7.10531 18.8295 7.17802 19.0739 7.25308 19.3182C7.30707 19.4868 7.36661 19.6516 7.42999 19.8171C7.54656 20.1241 7.63528 20.4363 7.72483 20.7518C7.79319 20.9806 7.87526 21.202 7.9607 21.425C8.0488 21.6651 8.12151 21.9095 8.19657 22.1538C8.25056 22.3225 8.3101 22.4873 8.37348 22.6527C8.72728 23.5883 8.72728 23.5883 8.72728 23.9584C7.96578 23.9407 7.25432 23.6761 6.54178 23.434C6.50183 23.4205 6.46187 23.407 6.42071 23.3931C6.17314 23.3068 5.94179 23.2027 5.70821 23.0848C5.58112 23.0222 5.45157 22.9721 5.31819 22.924C4.98356 22.7963 4.67507 22.6281 4.36365 22.4538C4.52422 21.8511 4.70966 21.2557 4.89436 20.6598C4.91377 20.5969 4.91377 20.5969 4.93358 20.5328C5.06756 20.0998 5.21007 19.6714 5.3661 19.2456C5.51525 18.8383 5.64355 18.4274 5.76529 18.0116C5.8398 17.7574 5.91931 17.505 6.00001 17.2527C6.01866 17.1943 6.01866 17.1943 6.03769 17.1348C6.08784 16.9784 6.13882 16.8223 6.19166 16.6667Z" fill="#D32C17"/>
</svg>
