<svg width="594" height="594" viewBox="0 0 594 594" fill="none" xmlns="http://www.w3.org/2000/svg">
<g clip-path="url(#clip0_240_694)">
<rect width="594" height="594" fill="white"/>
<path d="M582.462 -5H14.5385C-0.118327 -5 -12 7.77678 -12 23.5377V571.462C-12 587.223 -0.118327 600 14.5385 600H582.462C597.118 600 609 587.223 609 571.462V23.5377C609 7.77678 597.118 -5 582.462 -5Z" fill="#FFE3DF" fill-opacity="0.33"/>
<path d="M0.663312 0H125C-35.1457 134.431 -53.5896 393.87 85.5808 554.502L125 600H0.663312V0Z" fill="url(#paint0_linear_240_694)" fill-opacity="0.3"/>
<path d="M594.387 0H470.839C629.969 133.087 648.295 389.932 510.008 548.957L470.839 594H594.387V0Z" fill="url(#paint1_linear_240_694)" fill-opacity="0.3"/>
<path d="M298.394 97C299.006 97 299.618 97 300.248 97C308.687 121.365 308.687 121.365 311.539 131.527C312.554 134.947 313.819 138.254 315.096 141.588C316.833 146.272 318.254 151.054 319.722 155.823C323.334 167.544 327.018 179.224 331.044 190.816C332.419 194.778 333.78 198.745 335.139 202.712C335.415 203.519 335.692 204.326 335.976 205.157C337.786 210.457 339.494 215.777 341.144 221.127C341.978 223.697 342.915 226.208 343.89 228.731C345.562 233.1 346.743 237.5 347.809 242.044C348.398 244.531 348.398 244.531 349.534 246.809C350.523 249.6 350.229 250.722 349.396 253.561C349.221 254.176 349.046 254.79 348.865 255.424C348.215 257.676 347.534 259.917 346.846 262.158C346.599 262.965 346.351 263.773 346.097 264.604C344.381 270.115 342.399 275.423 340.199 280.767C338.866 284.297 338.036 287.881 337.167 291.542C336.069 295.539 334.451 299.299 332.878 303.137C331.831 305.906 331.068 308.606 330.386 311.479C329.453 315.412 328.213 319.043 326.677 322.791C324.792 327.396 323.477 331.913 322.326 336.734C321.199 340.944 319.63 344.978 318.096 349.061C316.703 352.848 315.498 356.673 314.307 360.525C312.92 364.964 311.484 369.387 310.043 373.81C309.763 374.668 309.484 375.527 309.195 376.412C307.211 382.482 305.169 388.531 303.07 394.564C302.046 397.621 301.135 400.69 300.248 403.787C299.33 403.488 298.412 403.19 297.466 402.882C296.311 400.269 296.311 400.269 295.206 396.83C295.008 396.222 294.809 395.614 294.605 394.987C292.96 389.889 291.489 384.743 290.015 379.596C288.943 376.051 287.653 372.615 286.328 369.154C284.306 363.702 282.684 358.118 280.98 352.566C278.078 343.12 275.181 333.714 271.681 324.46C270.657 321.66 269.73 318.856 268.846 316.011C267.511 311.735 266.167 307.462 264.808 303.193C264.286 301.553 264.286 301.553 263.753 299.881C263.403 298.781 263.053 297.681 262.692 296.547C261.987 294.332 261.282 292.117 260.577 289.901C260.233 288.822 259.889 287.742 259.534 286.63C258.868 284.527 258.208 282.422 257.555 280.316C255.42 273.442 253.044 266.696 250.445 259.977C247.446 251.905 248.275 246.455 251.333 238.572C253.728 232.172 255.846 225.814 257.693 219.242C258.46 216.656 259.343 214.167 260.316 211.649C261.907 207.511 263.229 203.335 264.489 199.093C267.727 188.197 271.176 177.43 275.125 166.758C276.777 162.229 278.018 157.695 279.127 153.01C280.215 149.058 281.829 145.334 283.383 141.538C284.749 137.93 285.627 134.296 286.52 130.555C287.619 126.45 289.162 122.527 290.667 118.55C292.333 114.03 293.651 109.408 294.963 104.78C295.822 101.81 296.623 99.5919 298.394 97Z" fill="#D32C17" fill-opacity="0.06"/>
<path d="M481.074 97.9028C481.38 97.9028 481.686 97.9028 482.002 97.9028C482.002 198.247 482.002 298.59 482.002 401.975C479.432 400.721 479.393 399.468 478.473 396.842C478.164 395.966 477.854 395.091 477.535 394.189C477.211 393.249 476.887 392.31 476.554 391.341C476.218 390.382 475.882 389.422 475.536 388.433C473.62 382.929 471.771 377.411 470.062 371.842C468.525 366.902 466.917 361.984 465.31 357.065C465.002 356.115 464.693 355.165 464.375 354.186C462.601 348.761 460.708 343.398 458.691 338.054C457.785 335.626 456.972 333.183 456.211 330.708C455.898 329.703 455.584 328.699 455.262 327.664C454.473 325.106 453.7 322.543 452.929 319.979C448.962 306.909 444.494 294.027 439.92 281.15C437.378 273.986 434.902 266.824 432.674 259.56C432.191 258.021 431.678 256.491 431.13 254.973C429.101 249.338 431.195 245.061 433.379 239.705C434.681 236.433 435.681 233.189 436.621 229.803C437.666 226.11 438.805 222.586 440.33 219.056C441.707 215.865 442.656 212.758 443.46 209.385C444.397 205.498 445.591 201.892 447.111 198.185C448.954 193.674 450.489 189.159 451.864 184.498C452.152 183.523 452.152 183.523 452.445 182.528C452.833 181.212 453.22 179.895 453.607 178.578C456.19 169.858 459.089 161.324 462.442 152.858C464.163 148.441 465.369 144.043 466.451 139.447C467.224 136.599 468.247 133.952 469.367 131.217C471.504 125.995 473.17 120.733 474.756 115.335C479.403 99.5341 479.403 99.5341 481.074 97.9028Z" fill="#D32C17" fill-opacity="0.06"/>
<path d="M112 102.428C115.011 105.367 115.992 107.879 117.292 111.701C117.52 112.35 117.748 113 117.983 113.669C118.721 115.783 119.447 117.901 120.172 120.019C120.681 121.487 121.191 122.956 121.701 124.424C124.364 132.125 126.915 139.841 129.209 147.656C132.17 157.538 135.746 167.24 139.2 176.966C141.678 183.954 144.082 190.943 146.272 198.024C148.327 204.507 150.586 210.928 152.802 217.36C164.038 249.973 164.038 249.973 160.383 258.908C159.21 261.917 158.313 264.935 157.438 268.039C156.1 272.727 154.556 277.261 152.802 281.815C151.778 284.59 150.892 287.387 150.02 290.211C148.886 293.876 147.679 297.482 146.311 301.07C143.928 307.354 141.983 313.76 140.025 320.179C137.177 329.51 134.353 338.76 130.644 347.804C128.784 352.5 127.373 357.332 125.91 362.156C122.288 374.087 118.553 385.877 113.855 397.45C113.243 397.45 112.631 397.45 112 397.45C112 300.093 112 202.736 112 102.428Z" fill="#D32C17" fill-opacity="0.06"/>
<path d="M389.277 373.919C389.889 373.919 390.501 373.919 391.132 373.919C392.329 377.536 393.527 381.154 394.723 384.771C395.15 386.059 395.576 387.348 396.003 388.636C398.374 395.801 400.733 402.969 403.05 410.151C405.618 418.11 408.312 426.008 411.247 433.846C412.502 437.25 413.568 440.574 414.322 444.119C415.301 448.71 417.019 452.895 418.837 457.221C420.116 460.388 420.969 463.222 421.324 466.619C421.459 467.684 421.594 468.75 421.733 469.847C422.345 470.146 422.957 470.444 423.587 470.752C420.761 473.727 417.468 475.195 413.735 476.86C413.031 477.177 412.327 477.494 411.601 477.82C409.419 478.793 407.232 479.753 405.041 480.707C404.412 480.982 403.782 481.258 403.133 481.543C386.604 488.707 366.81 496.996 348.475 496.996C349.669 490.115 351.646 483.675 353.981 477.087C356.693 469.369 356.693 469.369 359.175 461.578C360.531 457.093 362.105 452.7 363.718 448.297C366.511 440.581 369.052 432.827 371.44 424.982C377.1 406.439 377.1 406.439 380.757 397.622C382.372 393.386 383.618 389.055 384.838 384.697C385.938 380.852 387.317 377.451 389.277 373.919Z" fill="#D32C17" fill-opacity="0.06"/>
<path d="M204.73 381.164C205.648 381.164 206.566 381.164 207.512 381.164C209.623 386.534 211.496 391.911 213.076 397.454C214.414 402.142 215.959 406.676 217.713 411.23C219.098 414.985 220.241 418.806 221.422 422.627C222.271 425.264 223.207 427.841 224.204 430.429C226.037 435.23 227.432 440.113 228.84 445.046C229.915 448.624 231.206 452.086 232.55 455.574C233.935 459.329 235.078 463.15 236.259 466.971C237.108 469.608 238.044 472.185 239.041 474.773C244.605 489.403 244.605 489.403 244.605 495.191C232.629 494.913 221.441 490.777 210.236 486.99C209.608 486.779 208.979 486.568 208.332 486.351C204.439 485.001 200.801 483.372 197.128 481.529C195.129 480.551 193.092 479.767 190.994 479.015C185.732 477.018 180.881 474.388 175.983 471.662C178.508 462.237 181.425 452.925 184.329 443.607C184.634 442.624 184.634 442.624 184.946 441.621C187.053 434.85 189.294 428.151 191.748 421.492C194.093 415.123 196.111 408.698 198.025 402.194C199.197 398.22 200.447 394.272 201.716 390.327C202.01 389.414 202.01 389.414 202.309 388.483C203.098 386.037 203.899 383.597 204.73 381.164Z" fill="#D32C17" fill-opacity="0.06"/>
</g>
<defs>
<linearGradient id="paint0_linear_240_694" x1="194.135" y1="444.283" x2="-76.8047" y2="441.997" gradientUnits="userSpaceOnUse">
<stop offset="0.34" stop-color="#D32C17" stop-opacity="0.6"/>
<stop offset="1" stop-color="#D32C17" stop-opacity="0.05"/>
</linearGradient>
<linearGradient id="paint1_linear_240_694" x1="402.143" y1="439.84" x2="671.363" y2="437.56" gradientUnits="userSpaceOnUse">
<stop offset="0.34" stop-color="#D32C17" stop-opacity="0.6"/>
<stop offset="1" stop-color="#D32C17" stop-opacity="0.05"/>
</linearGradient>
<clipPath id="clip0_240_694">
<rect width="594" height="594" fill="white"/>
</clipPath>
</defs>
</svg>
