<svg width="19" height="19" viewBox="0 0 19 19" fill="none" xmlns="http://www.w3.org/2000/svg">
<g clip-path="url(#clip0_117_2304)">
<path d="M9.28468 0C9.31535 0 9.34602 0 9.37762 0C9.80054 1.11187 9.80054 1.11187 9.94345 1.57561C9.99429 1.7317 10.0577 1.88259 10.1217 2.03473C10.2088 2.24849 10.28 2.46671 10.3535 2.68437C10.5345 3.21924 10.7192 3.75223 10.9209 4.28121C10.9898 4.46203 11.058 4.64306 11.1261 4.82411C11.14 4.86093 11.1538 4.89774 11.1681 4.93567C11.2588 5.17755 11.3444 5.42031 11.4271 5.66443C11.4689 5.78175 11.5158 5.89632 11.5647 6.01143C11.6485 6.21083 11.7077 6.41162 11.7611 6.61896C11.7906 6.73245 11.7906 6.73245 11.8475 6.83642C11.8971 6.96381 11.8824 7.01498 11.8406 7.14454C11.8318 7.1726 11.8231 7.20065 11.814 7.22956C11.7814 7.33231 11.7473 7.43461 11.7128 7.53687C11.7004 7.57371 11.688 7.61055 11.6753 7.64851C11.5893 7.9 11.49 8.1422 11.3797 8.38606C11.3129 8.54717 11.2713 8.71073 11.2278 8.87777C11.1728 9.06016 11.0917 9.23177 11.0128 9.4069C10.9604 9.5333 10.9221 9.65647 10.888 9.78761C10.8412 9.96708 10.7791 10.1328 10.7021 10.3038C10.6076 10.514 10.5417 10.7201 10.484 10.9401C10.4275 11.1322 10.3489 11.3163 10.272 11.5026C10.2022 11.6755 10.1419 11.85 10.0821 12.0258C10.0126 12.2283 9.9407 12.4302 9.86848 12.632C9.85446 12.6712 9.84044 12.7104 9.82599 12.7507C9.72653 13.0278 9.62422 13.3038 9.51903 13.5791C9.46773 13.7186 9.42206 13.8587 9.37762 14C9.33161 13.9864 9.28561 13.9727 9.2382 13.9587C9.1803 13.8395 9.1803 13.8395 9.12493 13.6825C9.11499 13.6548 9.10505 13.627 9.09481 13.5984C9.01238 13.3658 8.93866 13.131 8.8648 12.8961C8.81106 12.7343 8.74643 12.5775 8.68 12.4195C8.57867 12.1708 8.4974 11.916 8.41201 11.6626C8.26659 11.2315 8.1214 10.8023 7.94599 10.38C7.89467 10.2522 7.84823 10.1242 7.80393 9.99442C7.73698 9.79929 7.66965 9.60429 7.60153 9.40948C7.57538 9.33465 7.57538 9.33465 7.5487 9.25832C7.53115 9.20812 7.5136 9.15792 7.49551 9.10619C7.46017 9.0051 7.42483 8.90401 7.3895 8.80291C7.37226 8.75365 7.35502 8.70439 7.33726 8.65363C7.30388 8.55766 7.2708 8.46161 7.23806 8.36547C7.13107 8.0518 7.012 7.74395 6.88176 7.43734C6.73145 7.069 6.77298 6.82028 6.92623 6.46055C7.0463 6.16849 7.1524 5.87833 7.245 5.57845C7.28343 5.46043 7.32765 5.34684 7.37643 5.23193C7.45619 5.0431 7.52242 4.85252 7.58555 4.65892C7.74781 4.16169 7.92066 3.67036 8.11859 3.18337C8.20136 2.97669 8.26356 2.76978 8.31912 2.55595C8.37368 2.37564 8.45455 2.20567 8.53241 2.03247C8.60086 1.8678 8.64486 1.70197 8.68962 1.53125C8.74473 1.34392 8.82203 1.1649 8.89747 0.983407C8.98094 0.777147 9.04702 0.566211 9.11274 0.355035C9.1558 0.219481 9.19594 0.118279 9.28468 0Z" fill="#313135"/>
<path d="M17.7725 0C17.7876 0 17.8026 0 17.8182 0C17.8182 4.62 17.8182 9.24 17.8182 14C17.6916 13.9423 17.6897 13.8846 17.6444 13.7637C17.6292 13.7234 17.6139 13.6831 17.5982 13.6415C17.5823 13.5983 17.5663 13.555 17.5499 13.5104C17.5334 13.4662 17.5168 13.422 17.4998 13.3765C17.4054 13.1231 17.3144 12.8691 17.2303 12.6126C17.1546 12.3852 17.0754 12.1588 16.9963 11.9323C16.9811 11.8886 16.9659 11.8448 16.9503 11.7997C16.8629 11.55 16.7697 11.303 16.6703 11.057C16.6257 10.9452 16.5857 10.8327 16.5482 10.7188C16.5328 10.6725 16.5174 10.6263 16.5015 10.5786C16.4626 10.4608 16.4246 10.3428 16.3866 10.2248C16.1913 9.623 15.9713 9.02989 15.7461 8.43702C15.6209 8.10717 15.499 7.77741 15.3893 7.44296C15.3655 7.37212 15.3403 7.30167 15.3132 7.2318C15.2134 6.97232 15.3164 6.77542 15.424 6.52881C15.4881 6.37817 15.5374 6.22881 15.5837 6.07292C15.6351 5.90287 15.6912 5.74065 15.7663 5.57812C15.8341 5.43117 15.8808 5.28812 15.9204 5.13281C15.9665 4.95389 16.0253 4.78783 16.1002 4.61719C16.1909 4.40945 16.2665 4.20161 16.3342 3.98698C16.3484 3.94209 16.3484 3.94209 16.3628 3.8963C16.3819 3.83568 16.401 3.77506 16.42 3.71444C16.5472 3.31294 16.69 2.92002 16.8551 2.53021C16.9398 2.32688 16.9992 2.12438 17.0525 1.91276C17.0905 1.78166 17.1409 1.65976 17.196 1.53385C17.3012 1.29342 17.3833 1.05113 17.4614 0.802622C17.6902 0.0751054 17.6902 0.0751055 17.7725 0Z" fill="#313135"/>
<path d="M0.84845 0C1.00005 0.13944 1.04945 0.258663 1.11491 0.440016C1.12638 0.470842 1.13785 0.501667 1.14966 0.533427C1.18684 0.633736 1.22339 0.734226 1.2599 0.834739C1.28554 0.904429 1.3112 0.974113 1.33688 1.04379C1.47096 1.40924 1.59941 1.77541 1.71489 2.14623C1.864 2.6152 2.04402 3.07557 2.21794 3.53713C2.34272 3.86875 2.46376 4.20038 2.57403 4.53639C2.6775 4.84406 2.79121 5.14874 2.90279 5.45399C3.46853 7.00158 3.46853 7.00158 3.28451 7.42559C3.22543 7.5684 3.18027 7.71159 3.13624 7.8589C3.06885 8.08139 2.9911 8.29655 2.90279 8.51263C2.85125 8.6443 2.80664 8.77706 2.76272 8.91104C2.70563 9.08498 2.64485 9.2561 2.57596 9.42638C2.45601 9.72457 2.35805 10.0286 2.25949 10.3332C2.11611 10.776 1.97392 11.2149 1.78717 11.6441C1.6935 11.8669 1.62246 12.0962 1.54879 12.3252C1.36645 12.8913 1.1784 13.4508 0.941829 14C0.911014 14 0.880199 14 0.84845 14C0.84845 9.38 0.84845 4.76 0.84845 0Z" fill="#313135"/>
<path d="M13.7223 12.4443C13.75 12.4443 13.7777 12.4443 13.8061 12.4443C13.8603 12.6043 13.9144 12.7643 13.9684 12.9244C13.9877 12.9814 14.007 13.0383 14.0262 13.0953C14.1334 13.4123 14.24 13.7294 14.3447 14.0471C14.4607 14.3992 14.5824 14.7485 14.7151 15.0953C14.7717 15.2458 14.8199 15.3929 14.854 15.5497C14.8982 15.7528 14.9759 15.9379 15.058 16.1293C15.1158 16.2694 15.1544 16.3947 15.1704 16.545C15.1765 16.5921 15.1826 16.6393 15.1889 16.6878C15.2165 16.701 15.2442 16.7142 15.2727 16.7278C15.1449 16.8594 14.9962 16.9244 14.8275 16.9981C14.7957 17.0121 14.7638 17.0261 14.7311 17.0405C14.6325 17.0836 14.5336 17.126 14.4347 17.1682C14.4062 17.1804 14.3778 17.1926 14.3484 17.2052C13.6016 17.5221 12.7072 17.8888 11.8787 17.8888C11.9327 17.5844 12.022 17.2995 12.1275 17.0081C12.25 16.6666 12.25 16.6666 12.3622 16.322C12.4235 16.1236 12.4946 15.9293 12.5675 15.7345C12.6937 15.3932 12.8085 15.0502 12.9164 14.7032C13.1721 13.8829 13.1721 13.8829 13.3374 13.4928C13.4104 13.3055 13.4667 13.1139 13.5218 12.9211C13.5715 12.751 13.6338 12.6006 13.7223 12.4443Z" fill="#313135"/>
<path d="M4.81571 12.4443C4.86111 12.4443 4.90652 12.4443 4.9533 12.4443C5.05772 12.7007 5.15035 12.9575 5.22848 13.2221C5.29468 13.446 5.37105 13.6625 5.4578 13.8799C5.52632 14.0592 5.58288 14.2416 5.64126 14.4241C5.68325 14.55 5.72956 14.673 5.77885 14.7966C5.86952 15.0258 5.93853 15.259 6.00817 15.4945C6.06134 15.6653 6.12517 15.8306 6.19163 15.9972C6.26015 16.1765 6.3167 16.3589 6.37508 16.5413C6.41707 16.6673 6.46339 16.7903 6.51268 16.9139C6.78786 17.6124 6.78786 17.6124 6.78786 17.8888C6.19558 17.8755 5.64222 17.678 5.08802 17.4972C5.05695 17.4871 5.02587 17.4771 4.99385 17.4667C4.8013 17.4022 4.62137 17.3245 4.43969 17.2365C4.34085 17.1898 4.24009 17.1523 4.13635 17.1164C3.87607 17.0211 3.63614 16.8955 3.39392 16.7653C3.51881 16.3153 3.66305 15.8707 3.8067 15.4258C3.8218 15.3789 3.8218 15.3789 3.8372 15.331C3.94141 15.0077 4.05225 14.6878 4.17361 14.3699C4.28961 14.0658 4.3894 13.759 4.48409 13.4485C4.54204 13.2587 4.60388 13.0702 4.66665 12.8818C4.68115 12.8383 4.68115 12.8383 4.69595 12.7938C4.73496 12.677 4.77461 12.5605 4.81571 12.4443Z" fill="#313135"/>
</g>
<defs>
<clipPath id="clip0_117_2304">
<rect width="18.6667" height="18.6667" fill="white"/>
</clipPath>
</defs>
</svg>
