<svg width="24" height="24" viewBox="0 0 24 24" fill="none" xmlns="http://www.w3.org/2000/svg">
<path d="M11.9374 0C11.9769 0 12.0163 0 12.0569 0C12.6007 1.42955 12.6007 1.42955 12.7844 2.02579C12.8498 2.22647 12.9314 2.42047 13.0136 2.61608C13.1256 2.89091 13.2171 3.17148 13.3117 3.45133C13.5444 4.13902 13.7818 4.8243 14.0412 5.50442C14.1298 5.7369 14.2174 5.96965 14.305 6.20243C14.3228 6.24976 14.3406 6.29709 14.359 6.34586C14.4756 6.65685 14.5856 6.96898 14.692 7.28284C14.7457 7.43367 14.8061 7.58098 14.8689 7.72898C14.9766 7.98535 15.0527 8.24351 15.1214 8.51009C15.1593 8.65601 15.1593 8.65601 15.2325 8.78968C15.2963 8.95347 15.2774 9.01927 15.2237 9.18584C15.2124 9.22191 15.2011 9.25798 15.1895 9.29515C15.1475 9.42726 15.1037 9.55878 15.0593 9.69027C15.0434 9.73763 15.0275 9.78499 15.0111 9.83379C14.9006 10.1571 14.7728 10.4685 14.6311 10.7821C14.5452 10.9892 14.4917 11.1995 14.4357 11.4143C14.365 11.6488 14.2607 11.8694 14.1594 12.0946C14.0919 12.2571 14.0427 12.4155 13.9988 12.5841C13.9387 12.8148 13.8588 13.0279 13.7598 13.2478C13.6383 13.5179 13.5536 13.783 13.4795 14.0658C13.4068 14.3129 13.3057 14.5495 13.2069 14.7891C13.1171 15.0113 13.0395 15.2357 12.9627 15.4617C12.8734 15.7221 12.7809 15.9817 12.688 16.2411C12.67 16.2915 12.652 16.3419 12.6334 16.3938C12.5055 16.75 12.374 17.1049 12.2387 17.4589C12.1728 17.6382 12.1141 17.8183 12.0569 18C11.9978 17.9825 11.9386 17.965 11.8777 17.9469C11.8032 17.7936 11.8032 17.7936 11.732 17.5918C11.7193 17.5561 11.7065 17.5205 11.6933 17.4837C11.5873 17.1846 11.4926 16.8827 11.3976 16.5807C11.3285 16.3726 11.2454 16.1711 11.16 15.968C11.0297 15.6481 10.9252 15.3205 10.8154 14.9947C10.6285 14.4405 10.4418 13.8886 10.2163 13.3457C10.1503 13.1814 10.0906 13.0169 10.0336 12.85C9.94754 12.5991 9.86096 12.3484 9.77338 12.0979C9.73976 12.0017 9.73976 12.0017 9.70546 11.9036C9.6829 11.839 9.66033 11.7745 9.63708 11.708C9.59163 11.578 9.5462 11.448 9.50077 11.318C9.47861 11.2547 9.45645 11.1914 9.43362 11.1261C9.3907 11.0027 9.34817 10.8792 9.30606 10.7556C9.16851 10.3523 9.01542 9.9565 8.84797 9.56229C8.65471 9.08871 8.70811 8.76893 8.90515 8.30642C9.05951 7.93092 9.19593 7.55785 9.31499 7.17229C9.3644 7.02055 9.42125 6.87451 9.48397 6.72677C9.58652 6.48399 9.67168 6.23895 9.75284 5.99004C9.96146 5.35074 10.1837 4.71903 10.4382 4.0929C10.5446 3.82717 10.6246 3.56115 10.696 3.28623C10.7662 3.05439 10.8701 2.83586 10.9702 2.61318C11.0582 2.40146 11.1148 2.18825 11.1724 1.96875C11.2432 1.7279 11.3426 1.49773 11.4396 1.26438C11.5469 0.999189 11.6319 0.727986 11.7164 0.456474C11.7717 0.28219 11.8233 0.152073 11.9374 0Z" fill="#D32C17"/>
<path d="M22.8504 0C22.8697 0 22.8891 0 22.9091 0C22.9091 5.94 22.9091 11.88 22.9091 18C22.7464 17.9258 22.7439 17.8516 22.6857 17.6961C22.6661 17.6443 22.6465 17.5925 22.6263 17.5391C22.6058 17.4835 22.5853 17.4279 22.5642 17.3705C22.5429 17.3137 22.5217 17.2569 22.4997 17.1984C22.3784 16.8725 22.2614 16.5459 22.1532 16.2162C22.0559 15.9238 21.9541 15.6327 21.8524 15.3415C21.8328 15.2853 21.8133 15.229 21.7932 15.1711C21.6809 14.85 21.561 14.5324 21.4333 14.2161C21.376 14.0724 21.3245 13.9278 21.2763 13.7812C21.2565 13.7218 21.2367 13.6623 21.2162 13.6011C21.1663 13.4496 21.1173 13.2979 21.0685 13.1461C20.8174 12.3724 20.5346 11.6099 20.245 10.8476C20.0841 10.4235 19.9273 9.99953 19.7862 9.56952C19.7557 9.47844 19.7232 9.38786 19.6885 9.29803C19.56 8.96441 19.6926 8.71125 19.8309 8.39418C19.9133 8.2005 19.9766 8.00847 20.0361 7.80804C20.1023 7.5894 20.1744 7.38084 20.271 7.17188C20.3581 6.98293 20.4182 6.79901 20.4691 6.59933C20.5284 6.36928 20.604 6.15579 20.7003 5.93638C20.8169 5.66929 20.9141 5.40207 21.0011 5.12612C21.0193 5.06841 21.0193 5.06841 21.0379 5.00953C21.0625 4.93159 21.087 4.85365 21.1115 4.7757C21.275 4.2595 21.4585 3.75432 21.6708 3.25313C21.7798 2.9917 21.8561 2.73134 21.9246 2.45926C21.9735 2.2907 22.0383 2.13398 22.1092 1.9721C22.2445 1.66296 22.35 1.35146 22.4504 1.03194C22.7446 0.0965641 22.7446 0.0965642 22.8504 0Z" fill="#D32C17"/>
<path d="M1.09094 0C1.28586 0.179281 1.34937 0.332567 1.43353 0.565735C1.44828 0.605368 1.46303 0.645001 1.47822 0.685835C1.52601 0.814803 1.573 0.944005 1.61995 1.07324C1.65292 1.16284 1.68591 1.25243 1.71892 1.34202C1.89131 1.81188 2.05646 2.28267 2.20493 2.75944C2.39666 3.3624 2.62811 3.95431 2.85171 4.54773C3.01214 4.9741 3.16777 5.40049 3.30954 5.8325C3.44258 6.22808 3.58877 6.61981 3.73224 7.01227C4.45961 9.00203 4.45961 9.00203 4.22303 9.54719C4.14706 9.7308 4.08899 9.9149 4.03238 10.1043C3.94575 10.3904 3.84578 10.667 3.73224 10.9448C3.66597 11.1141 3.60862 11.2848 3.55215 11.4571C3.47875 11.6807 3.4006 11.9007 3.31203 12.1196C3.15781 12.503 3.03185 12.8939 2.90513 13.2855C2.72079 13.8548 2.53797 14.4192 2.29786 14.971C2.17743 15.2575 2.0861 15.5523 1.99138 15.8466C1.75695 16.5745 1.51517 17.2939 1.211 18C1.17138 18 1.13176 18 1.09094 18C1.09094 12.06 1.09094 6.12 1.09094 0Z" fill="#D32C17"/>
<path d="M17.6431 16C17.6786 16 17.7142 16 17.7508 16C17.8204 16.2057 17.89 16.4114 17.9595 16.6172C17.9843 16.6905 18.009 16.7637 18.0338 16.837C18.1716 17.2445 18.3086 17.6522 18.4432 18.0607C18.5924 18.5134 18.7489 18.9625 18.9194 19.4084C18.9923 19.6019 19.0543 19.791 19.098 19.9926C19.1549 20.2537 19.2547 20.4917 19.3604 20.7378C19.4347 20.9179 19.4842 21.0791 19.5048 21.2723C19.5127 21.3329 19.5205 21.3935 19.5286 21.4559C19.5642 21.4729 19.5997 21.4899 19.6363 21.5074C19.4721 21.6766 19.2808 21.7601 19.064 21.8548C19.023 21.8728 18.9821 21.8908 18.94 21.9094C18.8133 21.9647 18.6862 22.0193 18.5589 22.0735C18.5223 22.0892 18.4857 22.1049 18.4481 22.1211C17.4878 22.5285 16.3379 23 15.2727 23C15.3421 22.6086 15.4569 22.2424 15.5926 21.8676C15.7501 21.4287 15.7501 21.4287 15.8943 20.9856C15.9731 20.7305 16.0645 20.4806 16.1582 20.2302C16.3205 19.7914 16.4681 19.3504 16.6069 18.9042C16.9357 17.8496 16.9357 17.8496 17.1481 17.3481C17.242 17.1072 17.3143 16.8608 17.3852 16.6129C17.4491 16.3943 17.5292 16.2009 17.6431 16Z" fill="#D32C17"/>
<path d="M6.19166 16C6.25004 16 6.30841 16 6.36856 16C6.50281 16.3297 6.62191 16.6597 6.72237 17C6.80747 17.2878 6.90567 17.5662 7.01721 17.8457C7.10531 18.0762 7.17802 18.3108 7.25308 18.5454C7.30707 18.7073 7.36661 18.8655 7.42999 19.0243C7.54656 19.319 7.63528 19.6188 7.72483 19.9217C7.79319 20.1413 7.87526 20.3538 7.9607 20.5679C8.0488 20.7984 8.12151 21.0331 8.19657 21.2676C8.25056 21.4295 8.3101 21.5877 8.37348 21.7465C8.72728 22.6447 8.72728 22.6447 8.72728 23C7.96578 22.983 7.25432 22.729 6.54178 22.4965C6.50183 22.4836 6.46187 22.4706 6.42071 22.4573C6.17314 22.3744 5.94179 22.2745 5.70821 22.1613C5.58112 22.1013 5.45157 22.0532 5.31819 22.0069C4.98356 21.8844 4.67507 21.7229 4.36365 21.5556C4.52422 20.977 4.70966 20.4054 4.89436 19.8333C4.91377 19.773 4.91377 19.773 4.93358 19.7114C5.06756 19.2957 5.21007 18.8845 5.3661 18.4757C5.51525 18.0847 5.64355 17.6903 5.76529 17.291C5.8398 17.0471 5.91931 16.8047 6.00001 16.5625C6.01866 16.5065 6.01866 16.5065 6.03769 16.4493C6.08784 16.2991 6.13882 16.1494 6.19166 16Z" fill="#D32C17"/>
</svg>
