<svg width="500" height="500" viewBox="0 0 500 500" fill="none" xmlns="http://www.w3.org/2000/svg">
<rect width="500" height="500" fill="url(#paint0_linear_263_2)"/>
<path d="M249.197 110C249.703 110 250.21 110 250.731 110C257.709 127.403 257.709 127.403 260.067 134.662C260.906 137.105 261.953 139.467 263.008 141.848C264.445 145.194 265.62 148.609 266.833 152.016C269.82 160.388 272.866 168.73 276.196 177.01C277.333 179.84 278.458 182.674 279.581 185.508C279.81 186.084 280.039 186.66 280.274 187.254C281.77 191.04 283.182 194.84 284.547 198.66C285.236 200.497 286.011 202.29 286.818 204.092C288.2 207.213 289.177 210.356 290.059 213.601C290.545 215.377 290.545 215.377 291.484 217.005C292.303 218.999 292.06 219.8 291.371 221.827C291.226 222.267 291.081 222.706 290.932 223.158C290.394 224.766 289.831 226.368 289.262 227.968C289.057 228.545 288.853 229.121 288.642 229.716C287.224 233.652 285.585 237.443 283.766 241.26C282.664 243.781 281.977 246.342 281.259 248.956C280.351 251.811 279.013 254.497 277.712 257.238C276.846 259.217 276.215 261.144 275.651 263.197C274.88 266.006 273.855 268.6 272.584 271.277C271.026 274.566 269.938 277.792 268.987 281.236C268.055 284.243 266.757 287.124 265.489 290.04C264.337 292.746 263.341 295.478 262.356 298.229C261.209 301.4 260.022 304.559 258.83 307.718C258.599 308.331 258.367 308.945 258.129 309.577C256.488 313.912 254.8 318.233 253.064 322.542C252.218 324.726 251.464 326.918 250.731 329.13C249.972 328.917 249.213 328.703 248.431 328.484C247.475 326.618 247.475 326.618 246.562 324.161C246.398 323.726 246.234 323.292 246.065 322.845C244.704 319.203 243.488 315.528 242.269 311.851C241.383 309.319 240.316 306.865 239.22 304.393C237.548 300.499 236.207 296.51 234.798 292.544C232.399 285.797 230.003 279.079 227.109 272.469C226.262 270.469 225.496 268.466 224.765 266.434C223.66 263.38 222.549 260.328 221.425 257.278C220.994 256.107 220.994 256.107 220.554 254.913C220.264 254.127 219.975 253.341 219.676 252.531C219.093 250.949 218.51 249.367 217.927 247.784C217.643 247.013 217.358 246.242 217.065 245.448C216.514 243.946 215.968 242.442 215.428 240.938C213.663 236.028 211.698 231.209 209.549 226.41C207.069 220.645 207.754 216.752 210.283 211.121C212.264 206.55 214.015 202.008 215.543 197.315C216.177 195.467 216.906 193.689 217.711 191.891C219.027 188.935 220.12 185.952 221.162 182.922C223.839 175.139 226.691 167.449 229.957 159.827C231.323 156.592 232.349 153.353 233.266 150.006C234.166 147.184 235.5 144.523 236.785 141.813C237.914 139.235 238.64 136.639 239.379 133.967C240.288 131.035 241.564 128.233 242.809 125.392C244.186 122.164 245.276 118.862 246.361 115.557C247.071 113.435 247.733 111.851 249.197 110Z" fill="url(#paint1_linear_263_2)"/>
<path d="M389.247 110C389.495 110 389.744 110 390 110C390 182.313 390 254.626 390 329.13C387.912 328.226 387.881 327.323 387.134 325.431C386.882 324.8 386.631 324.169 386.371 323.519C386.108 322.842 385.845 322.165 385.574 321.467C385.301 320.775 385.028 320.084 384.747 319.371C383.19 315.405 381.688 311.428 380.3 307.415C379.051 303.855 377.745 300.311 376.439 296.766C376.188 296.081 375.938 295.397 375.68 294.691C374.238 290.782 372.7 286.916 371.061 283.066C370.325 281.316 369.665 279.555 369.046 277.771C368.792 277.048 368.537 276.324 368.275 275.578C367.634 273.734 367.006 271.887 366.38 270.04C363.157 260.621 359.527 251.337 355.81 242.057C353.746 236.895 351.734 231.733 349.924 226.498C349.531 225.389 349.115 224.287 348.669 223.193C347.021 219.132 348.722 216.05 350.497 212.19C351.555 209.832 352.367 207.494 353.131 205.054C353.98 202.393 354.905 199.854 356.144 197.31C357.263 195.009 358.034 192.77 358.687 190.34C359.448 187.539 360.418 184.94 361.653 182.269C363.151 179.017 364.397 175.764 365.515 172.405C365.748 171.702 365.748 171.702 365.987 170.985C366.302 170.037 366.616 169.088 366.931 168.139C369.03 161.855 371.385 155.705 374.109 149.603C375.507 146.421 376.486 143.251 377.366 139.939C377.994 137.887 378.825 135.979 379.735 134.008C381.471 130.245 382.825 126.452 384.113 122.563C387.889 111.176 387.889 111.176 389.247 110Z" fill="url(#paint2_linear_263_2)"/>
<path d="M110 110C112.501 112.183 113.316 114.049 114.397 116.887C114.586 117.37 114.775 117.852 114.97 118.349C115.583 119.919 116.186 121.492 116.789 123.065C117.212 124.156 117.635 125.247 118.059 126.338C120.271 132.058 122.391 137.789 124.296 143.593C126.757 150.933 129.727 158.139 132.597 165.364C134.655 170.554 136.653 175.745 138.472 181.004C140.179 185.82 142.055 190.589 143.897 195.367C153.231 219.59 153.231 219.59 150.195 226.226C149.22 228.462 148.475 230.703 147.749 233.009C146.637 236.491 145.354 239.859 143.897 243.241C143.046 245.302 142.31 247.38 141.586 249.477C140.644 252.199 139.641 254.878 138.504 257.543C136.525 262.21 134.908 266.968 133.282 271.736C130.916 278.667 128.57 285.538 125.489 292.255C123.943 295.743 122.771 299.331 121.556 302.915C118.547 311.776 115.444 320.534 111.541 329.13C111.032 329.13 110.524 329.13 110 329.13C110 256.817 110 184.504 110 110Z" fill="url(#paint3_linear_263_2)"/>
<path d="M322.42 304.782C322.876 304.782 323.333 304.782 323.803 304.782C324.696 307.287 325.589 309.791 326.481 312.296C326.799 313.188 327.116 314.08 327.434 314.972C329.203 319.933 330.961 324.896 332.689 329.869C334.603 335.38 336.611 340.848 338.8 346.275C339.735 348.632 340.531 350.934 341.092 353.388C341.822 356.566 343.103 359.464 344.459 362.46C345.412 364.652 346.048 366.615 346.312 368.967C346.413 369.704 346.514 370.442 346.618 371.202C347.074 371.408 347.53 371.615 348 371.828C345.893 373.888 343.438 374.905 340.655 376.058C340.13 376.277 339.605 376.496 339.064 376.722C337.437 377.396 335.806 378.06 334.173 378.721C333.704 378.912 333.234 379.103 332.751 379.3C320.427 384.26 305.67 389.999 292 389.999C292.891 385.235 294.365 380.776 296.105 376.214C298.127 370.87 298.127 370.87 299.978 365.476C300.988 362.371 302.162 359.329 303.365 356.281C305.447 350.938 307.342 345.569 309.122 340.138C313.342 327.299 313.342 327.299 316.068 321.194C317.272 318.261 318.201 315.262 319.111 312.244C319.931 309.583 320.959 307.228 322.42 304.782Z" fill="url(#paint4_linear_263_2)"/>
<path d="M175.46 304.782C176.209 304.782 176.958 304.782 177.73 304.782C179.453 308.795 180.981 312.814 182.271 316.956C183.363 320.46 184.623 323.849 186.054 327.252C187.185 330.058 188.118 332.914 189.081 335.769C189.774 337.74 190.538 339.666 191.352 341.6C192.848 345.188 193.986 348.837 195.136 352.524C196.013 355.198 197.066 357.785 198.163 360.392C199.293 363.198 200.226 366.054 201.19 368.909C201.882 370.88 202.647 372.806 203.46 374.74C208 385.674 208 385.674 208 389.999C198.228 389.792 189.097 386.7 179.953 383.87C179.44 383.713 178.928 383.555 178.399 383.393C175.222 382.384 172.253 381.167 169.256 379.789C167.625 379.058 165.962 378.473 164.25 377.91C159.956 376.418 155.997 374.452 152 372.415C154.061 365.372 156.441 358.413 158.811 351.449C159.06 350.714 159.06 350.714 159.314 349.964C161.034 344.904 162.863 339.897 164.865 334.921C166.779 330.161 168.426 325.359 169.988 320.499C170.944 317.529 171.965 314.578 173 311.63C173.24 310.948 173.24 310.948 173.484 310.252C174.128 308.424 174.782 306.6 175.46 304.782Z" fill="url(#paint5_linear_263_2)"/>
<defs>
<linearGradient id="paint0_linear_263_2" x1="250" y1="0" x2="250" y2="500" gradientUnits="userSpaceOnUse">
<stop stop-color="white"/>
<stop offset="1" stop-color="#F5F5F5"/>
</linearGradient>
<linearGradient id="paint1_linear_263_2" x1="250.001" y1="110" x2="250.001" y2="329.13" gradientUnits="userSpaceOnUse">
<stop stop-color="#D32C17"/>
<stop offset="1" stop-color="#E53721"/>
</linearGradient>
<linearGradient id="paint2_linear_263_2" x1="369" y1="110" x2="369" y2="329.13" gradientUnits="userSpaceOnUse">
<stop stop-color="#D32C17"/>
<stop offset="1" stop-color="#E53721"/>
</linearGradient>
<linearGradient id="paint3_linear_263_2" x1="131" y1="110" x2="131" y2="329.13" gradientUnits="userSpaceOnUse">
<stop stop-color="#D32C17"/>
<stop offset="1" stop-color="#E53721"/>
</linearGradient>
<linearGradient id="paint4_linear_263_2" x1="320" y1="304.782" x2="320" y2="389.999" gradientUnits="userSpaceOnUse">
<stop stop-color="#D32C17"/>
<stop offset="1" stop-color="#E53721"/>
</linearGradient>
<linearGradient id="paint5_linear_263_2" x1="180" y1="304.782" x2="180" y2="389.999" gradientUnits="userSpaceOnUse">
<stop stop-color="#D32C17"/>
<stop offset="1" stop-color="#E53721"/>
</linearGradient>
</defs>
</svg>
